<svg xmlns="http://www.w3.org/2000/svg" viewBox="0 0 192.5 99.76"><defs><style>.cls-1{fill:#027bbd;}.cls-2{fill:#d95f1e;}.cls-2,.cls-4{stroke:#d95f1e;stroke-linejoin:round;}.cls-2,.cls-3,.cls-4{stroke-linecap:round;}.cls-3,.cls-4{fill:none;}.cls-3{stroke:#027bbd;stroke-miterlimit:10;}</style></defs><g id="Layer_2" data-name="Layer 2"><g id="Layer_1-2" data-name="Layer 1"><path class="cls-1" d="M74.74,75.53h-1l1-2.16h.65Zm1.61,0h-1l1-2.16h.65Z"/><path class="cls-1" d="M85.65,73.63H84.33V80h-.81V76.68H78.9v1.39a1.46,1.46,0,0,0,.29,1,1,1,0,0,0,.86.37,1,1,0,0,0,.83-.34,1.25,1.25,0,0,0,.31-.89v-.12H82a.81.81,0,0,1,0,.16,1.84,1.84,0,0,1-.52,1.37,2,2,0,0,1-1.41.5,1.9,1.9,0,0,1-1.47-.56,2.15,2.15,0,0,1-.5-1.49V76.1H79a1.77,1.77,0,0,0,1.27-.43,1.58,1.58,0,0,0,.43-1.17v-.87H77V73h8.66Zm-2.13,0h-2v.87a2.42,2.42,0,0,1-.16.88,1.8,1.8,0,0,1-.45.65h2.61Z"/><path class="cls-1" d="M85.4,81.24a1.44,1.44,0,0,1-.53,1.18,2.14,2.14,0,0,1-1.44.44,2.65,2.65,0,0,1-1.65-.5,1.69,1.69,0,0,1-.63-1.5h.75a1.12,1.12,0,0,0,.39,1,1.69,1.69,0,0,0,1.12.35,1.56,1.56,0,0,0,.94-.26.88.88,0,0,0,.33-.74.85.85,0,0,0-.24-.61.9.9,0,0,0-.69-.26h-.24v-.63h.24a1.69,1.69,0,0,1,1.22.42A1.45,1.45,0,0,1,85.4,81.24Z"/><path class="cls-1" d="M87,76.78v1.3a1.5,1.5,0,0,0,.29,1,1,1,0,0,0,.84.37,1,1,0,0,0,.83-.34,1.3,1.3,0,0,0,.3-.89V78h.8v.16a1.9,1.9,0,0,1-.52,1.41,1.83,1.83,0,0,1-1.39.52,1.86,1.86,0,0,1-1.46-.56,2.16,2.16,0,0,1-.5-1.49V76.13h1c1.13,0,1.7-.53,1.7-1.59v-.91H85.12V73H91v.67H89.77v.91a2.32,2.32,0,0,1-.55,1.67,2.27,2.27,0,0,1-1.69.57Z"/><path class="cls-1" d="M95.89,70.49a6.26,6.26,0,0,1,3.16.65A2.06,2.06,0,0,1,100.14,73v.16h-.82V73a1.5,1.5,0,0,0-.89-1.44,5.77,5.77,0,0,0-2.55-.45,5.7,5.7,0,0,0-2.48.41,1.44,1.44,0,0,0-.84,1.4h1.31v.67h-1.3V80h-.83V73.63H90.43V73h1.31a2.05,2.05,0,0,1,1.06-1.87A6.3,6.3,0,0,1,95.89,70.49Z"/><path class="cls-1" d="M101.81,73v.67h-1.3V80h-.8V76.42H96.82l-.19.08a8.28,8.28,0,0,0-.78.42,1.68,1.68,0,0,0-.48.44,1.05,1.05,0,0,0-.19.64,1,1,0,0,0,.3.75,1.29,1.29,0,0,0,1.69,0,1.18,1.18,0,0,0,.32-.83h.7v2.64h-.76V79a1.34,1.34,0,0,1-.49.49,1.61,1.61,0,0,1-.89.23,1.78,1.78,0,0,1-1.25-.44,1.44,1.44,0,0,1-.48-1.12,1.5,1.5,0,0,1,.24-.86,2.54,2.54,0,0,1,.6-.58,8,8,0,0,1,.92-.5A2.07,2.07,0,0,1,95,75.66a1.48,1.48,0,0,1-.43-1.1,1.55,1.55,0,0,1,.26-.89,1.59,1.59,0,0,1,.69-.59,2.33,2.33,0,0,1,1-.21,2.24,2.24,0,0,1,.93.19,1.58,1.58,0,0,1,.67.55,1.63,1.63,0,0,1,.06,1.63,2.14,2.14,0,0,1-.51.59h2V73Zm-6.48,1.65a1,1,0,0,0,.41.87,1.88,1.88,0,0,0,1.09.34,2.24,2.24,0,0,0,.63-.52,1.15,1.15,0,0,0,.22-.68,1,1,0,0,0-.34-.76,1.24,1.24,0,0,0-.84-.3,1.33,1.33,0,0,0-.84.28A.94.94,0,0,0,95.33,74.61Z"/><path class="cls-1" d="M108.7,73.63h-1.31V80h-.83V76h-1.45a2.43,2.43,0,0,0-1.5.43,1.55,1.55,0,0,0-.53,1.27,1.65,1.65,0,0,0,.47,1.25,1.94,1.94,0,0,0,1.38.45h.22V80h-.33a2.81,2.81,0,0,1-1.88-.6,2.22,2.22,0,0,1-.69-1.75,2.09,2.09,0,0,1,.76-1.78,3.27,3.27,0,0,1,2.06-.59h1.49V73.63h-5.28V73h7.42Z"/><path class="cls-1" d="M119.23,73v.67h-1.32V80h-.82V76.34h-1.63v.73a2.11,2.11,0,0,1-.46,1.47,1.71,1.71,0,0,1-1.33.5,1.93,1.93,0,0,1-1.33-.45,1.58,1.58,0,0,1-.51-1.23,1.49,1.49,0,0,1,.54-1.23,2.11,2.11,0,0,1,1.39-.44h.93v-.9a1.46,1.46,0,0,0-.23-.9.75.75,0,0,0-.68-.33.9.9,0,0,0-.67.27,1.05,1.05,0,0,0-.24.73,1.47,1.47,0,0,0,0,.36h-.83a3.67,3.67,0,0,1,0-.39,1.62,1.62,0,0,1,.45-1.2,1.7,1.7,0,0,1,1.26-.45,1.53,1.53,0,0,1,1.3.54,2.38,2.38,0,0,1,.41,1.49v.78h1.63V73Zm-4.54,3.38h-.91a1.23,1.23,0,0,0-.85.28.89.89,0,0,0-.32.74.93.93,0,0,0,.3.73,1,1,0,0,0,.75.28.9.9,0,0,0,.75-.33,1.4,1.4,0,0,0,.28-.93Z"/><path class="cls-1" d="M119,81.24a1.43,1.43,0,0,1-.52,1.18,2.14,2.14,0,0,1-1.44.44,2.68,2.68,0,0,1-1.66-.5,1.71,1.71,0,0,1-.62-1.5h.74a1.15,1.15,0,0,0,.4,1,1.67,1.67,0,0,0,1.12.35,1.53,1.53,0,0,0,.93-.26.86.86,0,0,0,.34-.74.82.82,0,0,0-.25-.61.86.86,0,0,0-.68-.26h-.24v-.63h.24a1.69,1.69,0,0,1,1.22.42A1.49,1.49,0,0,1,119,81.24Z"/><path class="cls-1" d="M125.11,73.63v2.72a1.84,1.84,0,0,1,.71-.73,2.22,2.22,0,0,1,1.16-.28,2.15,2.15,0,0,1,1.1.29,1.87,1.87,0,0,1,.77.78,2.28,2.28,0,0,1,.28,1.15,2.46,2.46,0,0,1-.29,1.21,1.86,1.86,0,0,1-.78.79,2.34,2.34,0,0,1-1.14.27,4.14,4.14,0,0,1-.69-.07v-.64a2.31,2.31,0,0,0,.49,0,1.5,1.5,0,0,0,1.13-.43,1.73,1.73,0,0,0,.23-2,1.43,1.43,0,0,0-.55-.54,1.54,1.54,0,0,0-.77-.19,1.69,1.69,0,0,0-.93.23,1.39,1.39,0,0,0-.55.58,1.7,1.7,0,0,0-.17.73V80h-.8V76.08H123a2.49,2.49,0,0,0-1.5.41,1.46,1.46,0,0,0-.53,1.22,1.56,1.56,0,0,0,.47,1.21,2,2,0,0,0,1.38.43H123V80h-.33a2.87,2.87,0,0,1-1.86-.58,2,2,0,0,1-.7-1.63,2.09,2.09,0,0,1,.24-1,1.82,1.82,0,0,1,.67-.68h-1.7v-.68h5V73.63H118.7V73h11.37v.67Z"/><path class="cls-1" d="M130.85,80V73.63h-1.31V73H133v.67h-1.29V80Z"/><path class="cls-1" d="M140.82,73.63h-1.31V80h-.82V75.88h-1.94a1.45,1.45,0,0,1,.39.55,1.64,1.64,0,0,1,.15.71,1.66,1.66,0,0,1-.26.93,1.55,1.55,0,0,1-.68.61,2.25,2.25,0,0,1-1,.21,2.22,2.22,0,0,1-1-.23,1.69,1.69,0,0,1-1-1.6,1.77,1.77,0,0,1,.27-1,1.71,1.71,0,0,1,.74-.64,2.5,2.5,0,0,1,1.07-.22h3.26V73.63h-6.23V73h8.36Zm-5.45,4.59a1.25,1.25,0,0,0,.9-.33,1.18,1.18,0,0,0,0-1.68,1.25,1.25,0,0,0-.9-.33,1.29,1.29,0,0,0-.91.33,1.2,1.2,0,0,0,0,1.68A1.31,1.31,0,0,0,135.37,78.22Z"/><path class="cls-1" d="M143.73,73v.67h-1.3V80h-.84V73.63h-1.31V73h1.33v-.4a1.85,1.85,0,0,0-.24-1,.85.85,0,0,0-.81-.39.88.88,0,0,0-.82.39,1.76,1.76,0,0,0-.25,1v.59h-.81V72.6a2.31,2.31,0,0,1,.45-1.5,1.72,1.72,0,0,1,1.43-.57,1.69,1.69,0,0,1,1.43.56,2.4,2.4,0,0,1,.44,1.51V73Z"/><path class="cls-1" d="M148.85,73.63V75.7a1.81,1.81,0,0,1,.66-.74,2,2,0,0,1,1.06-.27,2.15,2.15,0,0,1,1.07.27,1.87,1.87,0,0,1,.73.77,2.29,2.29,0,0,1,.27,1.12,2.41,2.41,0,0,1-.27,1.17,1.87,1.87,0,0,1-.74.76,2.19,2.19,0,0,1-1.06.26A2.65,2.65,0,0,1,150,79v-.63a1.66,1.66,0,0,0,.42,0,1.35,1.35,0,0,0,1-.4,1.5,1.5,0,0,0,.41-1.11,1.45,1.45,0,0,0-.42-1.09,1.43,1.43,0,0,0-1-.41,1.34,1.34,0,0,0-1.11.47,1.71,1.71,0,0,0-.38,1.1V80h-.79V78.08a1.79,1.79,0,0,1-.69.73,2.16,2.16,0,0,1-1.1.26,2.35,2.35,0,0,1-1.1-.26,2,2,0,0,1-.74-.77,2.46,2.46,0,0,1-.27-1.17,2.39,2.39,0,0,1,.27-1.16,1.92,1.92,0,0,1,.76-.76,2.39,2.39,0,0,1,1.11-.26,2.11,2.11,0,0,1,1.08.26,1.78,1.78,0,0,1,.68.71v-2H143.2V73h10.39v.67Zm-2.32,4.78a1.46,1.46,0,0,0,.84-.23,1.35,1.35,0,0,0,.52-.57,1.73,1.73,0,0,0,.17-.73,1.65,1.65,0,0,0-.17-.72,1.33,1.33,0,0,0-.51-.57,1.51,1.51,0,0,0-.85-.22,1.58,1.58,0,0,0-1.1.41,1.43,1.43,0,0,0-.44,1.09,1.54,1.54,0,0,0,.43,1.13A1.57,1.57,0,0,0,146.53,78.41Z"/><path class="cls-1" d="M156.51,73v.67h-1.3V80h-.83V73.63h-1.31V73h1.32a9.11,9.11,0,0,0-.84-1.1,1.58,1.58,0,0,0-.63-.44,2.68,2.68,0,0,0-.83-.1h-.42v-.65h.41a4,4,0,0,1,1.15.14,2.22,2.22,0,0,1,.86.62A10,10,0,0,1,155.18,73Z"/><path class="cls-1" d="M170.28,73.63H169V80h-.83V73.63h-2.1V80h-.82V76.89h-1.57a1.79,1.79,0,0,1,.18.79,1.74,1.74,0,0,1-.55,1.34,2.1,2.1,0,0,1-1.46.49,2.64,2.64,0,0,1-1.14-.24,1.91,1.91,0,0,1-.78-.68,1.81,1.81,0,0,1-.28-1h.77a1.16,1.16,0,0,0,.38.89,1.4,1.4,0,0,0,1,.36,1.3,1.3,0,0,0,.95-.34,1.16,1.16,0,0,0,.36-.88,1.21,1.21,0,0,0-.23-.72h0v0a1.38,1.38,0,0,0-1.12-.44h-.39v-.65h.39a1.32,1.32,0,0,0,.94-.31,1,1,0,0,0,.34-.75,1,1,0,0,0-.35-.82,1.28,1.28,0,0,0-.87-.31,1.39,1.39,0,0,0-.91.31,1,1,0,0,0-.37.79h-.77a1.6,1.6,0,0,1,.57-1.29,2.25,2.25,0,0,1,1.48-.48,2.11,2.11,0,0,1,1.42.46,1.54,1.54,0,0,1,.54,1.23,1.44,1.44,0,0,1-.31.94,1.63,1.63,0,0,1-.9.53v0a1.33,1.33,0,0,1,.54.18h2.19V73h5.05Z"/><path class="cls-1" d="M176.9,73v.67h-1.31V80h-.81V78.09a2,2,0,0,1-.74.74,2.4,2.4,0,0,1-1.14.26,2.5,2.5,0,0,1-1.18-.27,2.09,2.09,0,0,1-.8-.79,2.43,2.43,0,0,1-.28-1.19,2.13,2.13,0,0,1,.29-1.14,2.07,2.07,0,0,1,.8-.78,2.46,2.46,0,0,1,1.17-.27,2.3,2.3,0,0,1,1.15.27,1.77,1.77,0,0,1,.73.73v-2h-5.1V73Zm-3.79,5.49a1.77,1.77,0,0,0,.92-.22,1.49,1.49,0,0,0,.57-.6,1.66,1.66,0,0,0,.18-.75h0a1.71,1.71,0,0,0-.18-.77,1.46,1.46,0,0,0-.57-.59,1.77,1.77,0,0,0-.92-.22,1.79,1.79,0,0,0-.84.19,1.39,1.39,0,0,0-.6.55,1.49,1.49,0,0,0-.22.83,1.52,1.52,0,0,0,.47,1.16A1.71,1.71,0,0,0,173.11,78.45Z"/><path class="cls-1" d="M177.67,80V73.63h-1.31V73h3.44v.67h-1.3V80Z"/><path class="cls-1" d="M188.14,73.63h-1.31V80H186V75.94h-1.89v.91a1.79,1.79,0,0,1-1.93,1.91,1.85,1.85,0,0,1-1.4-.52,1.93,1.93,0,0,1-.5-1.39V75.26h.83v1.57a1.29,1.29,0,0,0,.29.89,1,1,0,0,0,.79.34,1,1,0,0,0,.81-.34,1.25,1.25,0,0,0,.31-.89V75.26H186V73.63h-6.74V73h8.87Z"/><path class="cls-1" d="M188.77,73.37h1l-1,2.16h-.63Zm1.61,0h1l-.95,2.16h-.64Z"/><path class="cls-2" d="M3.49.62c.83-.39,1.5.25,2.16.54l1.24.65C9.34,3.14,11.64,4.63,14,6.1c4.77,3,9.39,6.24,13.77,9.67a201.11,201.11,0,0,1,15.74,13.9c.21-.53.62-1.19.74-1.47a28.21,28.21,0,0,1,2-3.51.76.76,0,0,1,.08-.11l.52.38a29,29,0,0,0-2.14,3.67,13.07,13.07,0,0,0-.58,1.19c0,.1-.07.24-.12.36a53.19,53.19,0,0,1,6,7.18c1.81,2.42,3.37,5,3.11,8.14,0,1.75-.66,4.21-3.15,4.44-2.27.15-3.83-1.42-5.09-2.76C41,42.85,41.12,35.72,43.17,30.27a205,205,0,0,0-15.88-14c-3.48-2.78-7.23-5.32-10.95-7.87C12.28,5.88,8.42,3.05,4,1.07.8,1.94.93,11.5,1.48,13.78A46.63,46.63,0,0,0,4,23.3a32.42,32.42,0,0,0,6.56,9.17A79.88,79.88,0,0,0,25.15,43.26c2.26,1.32,4.9,2.24,7.22,3.5.34.17-.66,1-.83,1.19a12.92,12.92,0,0,0-1,1.09c-1,1.22-1.95,2.46-2.87,3.71A68.36,68.36,0,0,0,17.36,78.07,67.49,67.49,0,0,0,15.47,90.9a29.5,29.5,0,0,0,.36,7.4c.73-1.71,1.31-3.45,2.11-5.15a58.66,58.66,0,0,1,3-5.67,40.21,40.21,0,0,1,10.29-12.3,93.55,93.55,0,0,1,11.09-6.82c.1.16.22.32.32.48-.42.25-.85.48-1.27.72-4.66,2.61-9.43,5.24-13.07,9-4.28,4.37-7.21,9.57-9.77,14.74-.67,1.38-1.15,2.83-1.75,4.25-.26.45-.41,1.67-1.08,1.73s-.86-2.92-1-3.63a54.1,54.1,0,0,1,1-13,105.92,105.92,0,0,1,3.66-14.75A66,66,0,0,1,27.3,52.2c.46-.49,3.28-4.58,4.38-5.12-1-.53-2-.92-3-1.41C22.93,43.15,18,39.51,13.33,35.79A35.28,35.28,0,0,1,3.44,23.63a31.67,31.67,0,0,1-1.82-5.87A38.73,38.73,0,0,1,.53,11.42C.43,8.86.42,2.09,3.49.62ZM45.34,46.67a7.57,7.57,0,0,0,3.8,2.66c3.32.52,3.48-3.21,3.32-5.14-.13-2.49-1.64-4.57-3.06-6.55a51.71,51.71,0,0,0-5.73-6.86C41.89,36,41.69,42.43,45.34,46.67Z"/><path class="cls-3" d="M84.31,27.68c-3.86.61-7.85,1.45-9.28,1.46-2.49,0-5.54.1-7.27,2.11a6.56,6.56,0,0,0-.84,1.21l-.13.23-.06.11s0,0,0,0c-.19.39-.34.83-.45,1a42.28,42.28,0,0,0-1.59,4.07c-.95,2.92-1.86,5.83-3,8.71A39.38,39.38,0,0,1,49,64.17a69.75,69.75,0,0,1-6.64,4.22l.33.49a52.36,52.36,0,0,0,8.83-6A45.72,45.72,0,0,0,59,53.86c2.8-4.62,4.34-9.61,6-14.52a47.78,47.78,0,0,1,1.77-4.8c.21-.47.41-1,.63-1.43.07-.14.17-.31.24-.47A6.52,6.52,0,0,1,68,32a4.89,4.89,0,0,1,1.27-1.21,12.49,12.49,0,0,1,7.06-1.69c5-.36,4.48-1.66,8-1.52-2.86-.59-3.5-1-6.29-1.72-3.19-.86-6.36-2-8.57-4.15A11.91,11.91,0,0,0,59,17.83a16.15,16.15,0,0,0-10.35,4.92A15.78,15.78,0,0,0,46.86,25c-.18-.12-.35-.26-.52-.38a17,17,0,0,1,17.32-7.08,13.6,13.6,0,0,1,6.51,4c4.07,3.67,9.43,4.62,15,5.86"/><path d="M58.7,24.23a1.85,1.85,0,0,0-.3,1.47,2.26,2.26,0,0,0,2.05,1.84,2.21,2.21,0,0,0,2.29-2.89C62.19,22.88,59.41,22.58,58.7,24.23Z"/><path class="cls-1" d="M95.5,42.66V49a6,6,0,0,1,2.33-2.18,7.26,7.26,0,0,1,3.58-.84A7.6,7.6,0,0,1,105.52,47a7.3,7.3,0,0,1,2.74,3,9.4,9.4,0,0,1,.95,4.26,9.17,9.17,0,0,1-1,4.47,6.8,6.8,0,0,1-2.78,2.84,8.36,8.36,0,0,1-4.07,1,11.79,11.79,0,0,1-2.51-.26V58.58a3.81,3.81,0,0,0,1.18.15,4.16,4.16,0,0,0,3-1.16,4.83,4.83,0,0,0,0-6.37A4.2,4.2,0,0,0,99.88,50a4,4,0,0,0-3.27,1.38,5.15,5.15,0,0,0-1.11,3.34v11H90.78V59.75A6.15,6.15,0,0,1,88.31,62a8.5,8.5,0,0,1-3.81.8,8.12,8.12,0,0,1-4.19-1.05,7.24,7.24,0,0,1-2.78-3,9.54,9.54,0,0,1-1-4.43,9.33,9.33,0,0,1,1-4.4,7.43,7.43,0,0,1,2.86-3,8.59,8.59,0,0,1,4.3-1,7.78,7.78,0,0,1,3.65.8,6.18,6.18,0,0,1,2.44,2.14V42.66H73.5V38.73h38.72v3.93ZM86.14,58.91a4.64,4.64,0,0,0,2.51-.65,4.36,4.36,0,0,0,1.6-1.68,4.83,4.83,0,0,0,.53-2.18,4.42,4.42,0,0,0-1.22-3.13,4.27,4.27,0,0,0-3.39-1.34,4.66,4.66,0,0,0-3.31,1.24,4.19,4.19,0,0,0-1.33,3.23,4.35,4.35,0,0,0,1.29,3.28A4.64,4.64,0,0,0,86.14,58.91Z"/><path class="cls-1" d="M124,38.73v3.93h-4.23v23h-4.91v-23h-4.23V38.73H115a28,28,0,0,0-2.74-3.57,4.84,4.84,0,0,0-2.1-1.45,9.41,9.41,0,0,0-2.93-.37h-1.86V29.53h1.75a16.59,16.59,0,0,1,4.8.61,8.3,8.3,0,0,1,3.5,2.51,38.36,38.36,0,0,1,4.26,6.08Z"/><path class="cls-1" d="M134.12,49.31a5.19,5.19,0,0,0-2.4.51,1.79,1.79,0,0,0-.95,1.71,1.84,1.84,0,0,0,.8,1.64,4.21,4.21,0,0,0,2.21.5h1.67a9.72,9.72,0,0,1,5.6,1.53,5.42,5.42,0,0,1,2.25,4.88,5.93,5.93,0,0,1-1.79,4.43,6.75,6.75,0,0,1-4.92,1.71,6.92,6.92,0,0,1-3.42-.76,6.69,6.69,0,0,1-2-1.67v4.8H126.5V59.28h4.42a3.65,3.65,0,0,0,1.26,2.54,4.66,4.66,0,0,0,3,.91,3.79,3.79,0,0,0,2.55-.76,2.55,2.55,0,0,0,.91-2,2.43,2.43,0,0,0-1.14-2.26,5.49,5.49,0,0,0-3-.73h-2.25a8.17,8.17,0,0,1-4.57-1.45,4.66,4.66,0,0,1-1.86-4,4.7,4.7,0,0,1,2-4.18,8.51,8.51,0,0,1,5-1.38h3.47V42.66H122.2V38.73h24.1v3.93H141v6.65Z"/><path class="cls-1" d="M172.58,42.66v4.18a7.23,7.23,0,0,1,3.69,2.94,9,9,0,0,1,1.41,5.13,10,10,0,0,1-1.1,4.73,7.83,7.83,0,0,1-3.28,3.24A10.7,10.7,0,0,1,168.13,64c-.21,0-.64,0-1.3-.07V59.86l1,.07a4.66,4.66,0,0,0,3.54-1.35,5.62,5.62,0,0,0,.23-6.87,3.55,3.55,0,0,0-2.93-1.27,3.49,3.49,0,0,0-3,1.45,6.45,6.45,0,0,0-1,3.75v.76h-4.11v-.76a6.53,6.53,0,0,0-1-3.75,3.31,3.31,0,0,0-2.93-1.45,3.75,3.75,0,0,0-3,1.27A4.86,4.86,0,0,0,152.51,55a5,5,0,0,0,1.3,3.6,4.66,4.66,0,0,0,3.54,1.35l1-.07V64c-.66,0-1.09.07-1.3.07a10.84,10.84,0,0,1-5.17-1.16,8.06,8.06,0,0,1-3.28-3.24,9.86,9.86,0,0,1-1.1-4.73,9.27,9.27,0,0,1,1.1-4.69,7.33,7.33,0,0,1,3-2.91,9.44,9.44,0,0,1,4.3-1,6.6,6.6,0,0,1,4.23,1.27,7.13,7.13,0,0,1,2.36,3.27h.11A7.7,7.7,0,0,1,164.51,48a6.54,6.54,0,0,1,3.23-1.57V42.66H144.48V38.73h36.21v3.93Z"/><path class="cls-1" d="M192.5,38.73v3.93h-4.23v23h-4.91v-23h-4.22V38.73h4.37V37.27a6.61,6.61,0,0,0-.76-3.31,3.52,3.52,0,0,0-5.59,0,6.32,6.32,0,0,0-.8,3.31v2.51H171.6V37.53a9.82,9.82,0,0,1,2-6.51q2-2.4,6.36-2.4,8.31,0,8.3,8.91v1.2Z"/><path class="cls-4" d="M89.36,19.91a6.41,6.41,0,0,1,4.46,1.61,5.86,5.86,0,0,1,2,4.16"/><path class="cls-4" d="M89.71,14a13,13,0,0,1,4.79.76,12.69,12.69,0,0,1,4.12,2.46,11.89,11.89,0,0,1,2.82,3.79,11.58,11.58,0,0,1,1.11,4.54"/></g></g></svg>